<svg version="1.2" baseProfile="tiny-ps" xmlns="http://www.w3.org/2000/svg" viewBox="0 0 40 40" width="40" height="40">
	<title>bio</title>
	<style>
		tspan { white-space:pre }
		.shp0 { fill: #ffffff } 
	</style>
	<g id="bio">
		<path id="dribbble" fill-rule="evenodd" class="shp0" d="M19.94 0C31.02 0 40 8.95 40 20C40 31.05 31.02 40 19.94 40C8.86 40 -0.12 31.05 -0.12 20C-0.12 8.95 8.86 0 19.94 0ZM3.89 20C3.89 23.86 5.26 27.4 7.55 30.17C9.32 27.24 13.61 21.61 21.36 19.44C20.85 18.36 20.33 17.31 19.81 16.31C12.49 19.15 6.97 19.33 3.92 19.09C3.9 19.39 3.89 19.69 3.89 20ZM19.94 36C22.24 36 24.42 35.52 26.4 34.65C25.59 30.25 24.21 26.05 22.61 22.24C18.07 23.48 13.33 26.36 9.78 32.38C12.54 34.64 16.08 36 19.94 36ZM13.09 5.53C8.76 7.57 5.5 11.48 4.34 16.21C8.42 16.25 13.85 15.55 18.49 13.89C16.35 10.1 14.31 7.18 13.09 5.53ZM32.23 9.71C28.93 11.93 25.84 13.65 22.97 14.97C23.63 16.26 24.23 17.53 24.77 18.76C28 18.35 31.72 18.54 35.98 19.63C35.9 15.85 34.5 12.4 32.23 9.71ZM29.25 33.03C32.75 30.54 35.21 26.68 35.83 22.24C33.86 21.75 30.15 21.08 25.93 21.59C28.15 27.35 29.04 31.86 29.25 33.03ZM19.94 4C18.63 4 17.35 4.16 16.13 4.45C18.3 7.09 20.13 9.85 21.67 12.56C25.86 10.59 28.58 8.48 29.84 7.4C27.11 5.27 23.67 4 19.94 4Z" />
	</g>
</svg>